<svg width="25" height="26" viewBox="0 0 25 26" fill="none" xmlns="http://www.w3.org/2000/svg">
<path d="M12.5 12.3593C11.641 12.3593 10.9052 12.0531 10.2927 11.4406C9.68025 10.8281 9.37435 10.0927 9.37504 9.23434C9.37573 8.37601 9.68164 7.63989 10.2927 7.02601C10.9039 6.41212 11.6396 6.10691 12.5 6.11038C13.3605 6.11385 14.0962 6.41941 14.7073 7.02705C15.3184 7.63469 15.6243 8.3708 15.625 9.23538C15.6257 10.1 15.3198 10.8354 14.7073 11.4416C14.0948 12.0479 13.3591 12.3531 12.5 12.3593ZM5.20837 19.8916V18.177C5.20837 17.7472 5.33337 17.3451 5.58337 16.9708C5.83407 16.5958 6.17087 16.3048 6.59379 16.0979C7.57712 15.6264 8.56115 15.2729 9.54587 15.0375C10.5299 14.8014 11.5146 14.6833 12.5 14.6833C13.4855 14.6833 14.4705 14.8014 15.4552 15.0375C16.44 15.2736 17.4233 15.627 18.4052 16.0979C18.8289 16.3048 19.1657 16.5958 19.4157 16.9708C19.6664 17.3451 19.7917 17.7472 19.7917 18.177V19.8916H5.20837ZM6.25004 18.85H18.75V18.177C18.75 17.9465 18.6754 17.7295 18.5261 17.526C18.3775 17.3232 18.1716 17.1517 17.9084 17.0114C17.0514 16.5961 16.1674 16.2781 15.2563 16.0573C14.3452 15.8364 13.4264 15.7257 12.5 15.725C11.5737 15.7243 10.6549 15.8347 9.74379 16.0562C8.83268 16.2777 7.94865 16.5958 7.09171 17.0104C6.82782 17.1507 6.62192 17.3222 6.474 17.525C6.32469 17.7284 6.25004 17.9458 6.25004 18.177V18.85ZM12.5 11.3187C13.073 11.3187 13.5636 11.1145 13.9719 10.7062C14.3802 10.2979 14.5841 9.80691 14.5834 9.2333C14.5827 8.65969 14.3789 8.16941 13.9719 7.76246C13.565 7.35552 13.0743 7.15135 12.5 7.14996C11.9257 7.14858 11.4355 7.35274 11.0292 7.76246C10.623 8.17219 10.4188 8.66246 10.4167 9.2333C10.4146 9.80413 10.6188 10.2948 11.0292 10.7052C11.4396 11.1156 11.9299 11.3194 12.5 11.3166" fill="black"/>
</svg>
