<svg width="235" height="74" viewBox="0 0 235 74" fill="none" xmlns="http://www.w3.org/2000/svg">
<path opacity="0.5" d="M32.1667 21.9669H7.83339C5.33339 21.9669 4.06506 24.9569 5.80839 26.7403L18.8101 40.0336C18.9653 40.1923 19.1506 40.3185 19.3553 40.4046C19.5599 40.4907 19.7797 40.535 20.0017 40.535C20.2237 40.535 20.4435 40.4907 20.6482 40.4046C20.8528 40.3185 21.0382 40.1923 21.1934 40.0336L34.195 26.7403C35.9367 24.9569 34.6667 21.9669 32.1667 21.9669Z" fill="black"/>
<path fill-rule="evenodd" clip-rule="evenodd" d="M11.6768 51.967C11.6768 51.6355 11.8085 51.3176 12.0429 51.0832C12.2773 50.8487 12.5952 50.717 12.9268 50.717H27.0734C27.405 50.717 27.7229 50.8487 27.9573 51.0832C28.1917 51.3176 28.3234 51.6355 28.3234 51.967C28.3234 52.2986 28.1917 52.6165 27.9573 52.8509C27.7229 53.0853 27.405 53.217 27.0734 53.217H12.9268C12.5952 53.217 12.2773 53.0853 12.0429 52.8509C11.8085 52.6165 11.6768 52.2986 11.6768 51.967Z" fill="#570E19"/>
<path d="M18.8084 40.0337C18.9636 40.1924 19.149 40.3185 19.3536 40.4047C19.5583 40.4908 19.778 40.5351 20.0001 40.5351C20.2221 40.5351 20.4419 40.4908 20.6465 40.4047C20.8511 40.3185 21.0365 40.1924 21.1917 40.0337L27.4517 33.6337H12.55L18.8084 40.0337Z" fill="#570E19"/>
<path opacity="0.5" d="M18.8084 40.0335C18.9636 40.1923 19.149 40.3184 19.3536 40.4045C19.5583 40.4906 19.778 40.535 20.0001 40.535C20.2221 40.535 20.4419 40.4906 20.6465 40.4045C20.8511 40.3184 21.0365 40.1923 21.1917 40.0335L21.2501 39.9752V50.7168H18.7501V39.9735L18.8084 40.0335Z" fill="black"/>
<path opacity="0.5" d="M47.1667 22.0331H22.8334C20.3334 22.0331 19.0651 25.0231 20.8084 26.8064L33.8101 40.0998C33.9653 40.2585 34.1506 40.3846 34.3553 40.4707C34.5599 40.5569 34.7797 40.6012 35.0017 40.6012C35.2237 40.6012 35.4435 40.5569 35.6482 40.4707C35.8528 40.3846 36.0382 40.2585 36.1934 40.0998L49.195 26.8064C50.9367 25.0231 49.6667 22.0331 47.1667 22.0331Z" fill="black"/>
<path fill-rule="evenodd" clip-rule="evenodd" d="M26.6768 52.0331C26.6768 51.7016 26.8085 51.3836 27.0429 51.1492C27.2773 50.9148 27.5952 50.7831 27.9268 50.7831H42.0734C42.405 50.7831 42.7229 50.9148 42.9573 51.1492C43.1917 51.3836 43.3234 51.7016 43.3234 52.0331C43.3234 52.3646 43.1917 52.6825 42.9573 52.917C42.7229 53.1514 42.405 53.2831 42.0734 53.2831H27.9268C27.5952 53.2831 27.2773 53.1514 27.0429 52.917C26.8085 52.6825 26.6768 52.3646 26.6768 52.0331Z" fill="#570E19"/>
<path d="M33.8084 40.0998C33.9636 40.2586 34.149 40.3847 34.3536 40.4708C34.5583 40.5569 34.778 40.6013 35.0001 40.6013C35.2221 40.6013 35.4419 40.5569 35.6465 40.4708C35.8511 40.3847 36.0365 40.2586 36.1917 40.0998L42.4517 33.6998H27.55L33.8084 40.0998Z" fill="#570E19"/>
<path opacity="0.5" d="M33.8084 40.0998C33.9636 40.2585 34.149 40.3847 34.3536 40.4708C34.5583 40.5569 34.778 40.6013 35.0001 40.6013C35.2221 40.6013 35.4419 40.5569 35.6465 40.4708C35.8511 40.3847 36.0365 40.2585 36.1917 40.0998L36.2501 40.0415V50.7831H33.7501V40.0398L33.8084 40.0998Z" fill="black"/>
<path d="M66.7539 40.7734C66.7539 40.6172 66.7669 40.3698 66.793 40.0312C66.819 39.6927 66.832 39.4974 66.832 39.4453C67.3529 37.3359 67.7826 35.526 68.1211 34.0156C68.4857 32.5052 68.7852 31.2292 69.0195 30.1875C69.2539 29.1458 69.4362 28.3125 69.5664 27.6875C69.6966 27.0625 69.7878 26.5807 69.8398 26.2422C69.8919 25.8776 69.918 25.6302 69.918 25.5C69.944 25.3438 69.957 25.2266 69.957 25.1484C69.957 24.9922 69.957 24.7188 69.957 24.3281C69.9831 23.9375 69.9701 23.5469 69.918 23.1562C69.8659 22.7396 69.7617 22.388 69.6055 22.1016C69.4753 21.7891 69.2409 21.6328 68.9023 21.6328C68.5638 21.6328 68.2773 21.75 68.043 21.9844C67.8346 22.1927 67.6263 22.4141 67.418 22.6484C67.2096 22.8568 66.9753 23.0391 66.7148 23.1953C66.4805 23.3516 66.181 23.3646 65.8164 23.2344C66.181 22.1406 66.6367 21.3594 67.1836 20.8906C67.7565 20.4219 68.5898 20.1875 69.6836 20.1875C70.3346 20.1875 70.8164 20.3177 71.1289 20.5781C71.4674 20.8125 71.6888 21.138 71.793 21.5547C71.9232 21.9453 71.9883 22.401 71.9883 22.9219C71.9883 23.4427 71.9883 23.9766 71.9883 24.5234C71.9883 25.513 71.8971 26.4896 71.7148 27.4531C71.5586 28.4167 71.3763 29.3802 71.168 30.3438C70.9596 31.3073 70.7643 32.2708 70.582 33.2344C70.4258 34.1979 70.3477 35.1745 70.3477 36.1641C70.3477 36.2161 70.3477 36.3464 70.3477 36.5547C70.3737 36.737 70.3867 36.8542 70.3867 36.9062L70.8945 36.3984C73.0299 33.3516 74.7357 30.8776 76.0117 28.9766C77.3138 27.0755 78.3424 25.5911 79.0977 24.5234C79.8529 23.4297 80.4388 22.6875 80.8555 22.2969C81.2721 21.9062 81.6628 21.7109 82.0273 21.7109C82.3659 21.7109 82.6263 21.8021 82.8086 21.9844C83.0169 22.1667 83.1732 22.388 83.2773 22.6484C83.3815 22.9089 83.4466 23.1953 83.4727 23.5078C83.5247 23.7943 83.5508 24.0547 83.5508 24.2891V36.3984H84.0586L97.6914 15.6562C98.3945 14.6146 99.1237 13.9375 99.8789 13.625C100.634 13.2865 101.598 13.2865 102.77 13.625L98.7461 17.6875C96.5586 21.0469 94.7096 23.9635 93.1992 26.4375C91.7148 28.8854 90.4648 30.9818 89.4492 32.7266C88.4596 34.4453 87.6523 35.8516 87.0273 36.9453C86.4284 38.013 85.9206 38.8594 85.5039 39.4844C85.0872 40.0833 84.7227 40.5 84.4102 40.7344C84.0977 40.9427 83.7331 41.0469 83.3164 41.0469C82.6133 41.0469 82.0924 40.8255 81.7539 40.3828C81.4414 39.9401 81.2201 39.4193 81.0898 38.8203C80.9857 38.1953 80.9336 37.5573 80.9336 36.9062C80.9596 36.2552 80.9727 35.7214 80.9727 35.3047C80.9727 34.3672 80.9727 33.5208 80.9727 32.7656C80.9987 31.9844 81.0247 31.2161 81.0508 30.4609C81.1029 29.7057 81.1549 28.9245 81.207 28.1172C81.2852 27.2839 81.3893 26.3333 81.5195 25.2656C79.1758 28.8333 77.2487 31.724 75.7383 33.9375C74.2539 36.151 73.043 37.8698 72.1055 39.0938C71.168 40.3177 70.4258 41.151 69.8789 41.5938C69.3581 42.0104 68.8763 42.2188 68.4336 42.2188C67.7305 42.2188 67.2747 42.1146 67.0664 41.9062C66.8581 41.6719 66.7539 41.2943 66.7539 40.7734Z" fill="#570E19"/>
<path d="M92.418 40.4609C92.418 40.0964 92.457 39.7839 92.5352 39.5234C92.6133 39.237 92.7565 38.8724 92.9648 38.4297C93.1471 38.1693 93.4727 37.6745 93.9414 36.9453C94.4362 36.2161 94.944 35.4479 95.4648 34.6406C96.0117 33.8333 96.5195 33.0781 96.9883 32.375C97.4831 31.6458 97.8216 31.138 98.0039 30.8516C98.2383 30.513 98.4206 30.3307 98.5508 30.3047C98.681 30.2786 98.9284 30.2656 99.293 30.2656C99.5273 30.2656 99.7747 30.2786 100.035 30.3047C100.322 30.3307 100.504 30.513 100.582 30.8516C100.217 31.737 99.7227 32.5833 99.0977 33.3906C98.4987 34.1719 97.8997 34.9531 97.3008 35.7344C96.7279 36.5156 96.2201 37.3229 95.7773 38.1562C95.3346 38.9635 95.1133 39.8359 95.1133 40.7734C95.2174 40.7734 95.3737 40.7865 95.582 40.8125C95.8164 40.8385 96.0638 40.8646 96.3242 40.8906C96.5846 40.9167 96.819 40.9427 97.0273 40.9688C97.2617 40.9948 97.431 40.9948 97.5352 40.9688C97.6914 40.9427 97.9518 40.8906 98.3164 40.8125C98.707 40.7083 99.1107 40.6042 99.5273 40.5C99.9701 40.3958 100.387 40.2917 100.777 40.1875C101.168 40.0833 101.441 40.0052 101.598 39.9531C101.598 40.0052 101.598 40.0964 101.598 40.2266C101.624 40.3307 101.637 40.4089 101.637 40.4609C101.637 40.9818 101.389 41.4115 100.895 41.75C100.426 42.0885 99.8659 42.362 99.2148 42.5703C98.5898 42.7526 97.9388 42.8828 97.2617 42.9609C96.6107 43.013 96.1029 43.0391 95.7383 43.0391C95.3477 43.0391 94.944 43 94.5273 42.9219C94.1367 42.8177 93.7852 42.6615 93.4727 42.4531C93.1602 42.2448 92.8997 41.9844 92.6914 41.6719C92.5091 41.3333 92.418 40.9297 92.418 40.4609ZM103.785 17.5703C104.124 17.5703 104.436 17.5833 104.723 17.6094C105.009 17.6354 105.257 17.7005 105.465 17.8047C105.673 17.9089 105.842 18.0651 105.973 18.2734C106.103 18.4818 106.168 18.7682 106.168 19.1328C106.168 19.2891 106.168 19.4583 106.168 19.6406C106.168 19.8229 106.142 20.0052 106.09 20.1875C106.064 20.3438 105.999 20.487 105.895 20.6172C105.79 20.7214 105.621 20.7734 105.387 20.7734C105.022 20.7734 104.723 20.6432 104.488 20.3828C104.28 20.1224 104.124 19.8229 104.02 19.4844C103.915 19.1198 103.85 18.7552 103.824 18.3906C103.798 18.026 103.785 17.7526 103.785 17.5703ZM102.184 39.7188C102.184 39.6146 102.184 39.4062 102.184 39.0938C102.21 38.7552 102.223 38.5339 102.223 38.4297C103.056 36.5286 104.124 34.7708 105.426 33.1562C106.728 31.5417 108.199 30.1094 109.84 28.8594C109.892 28.8594 109.97 28.8464 110.074 28.8203C110.204 28.7682 110.296 28.7422 110.348 28.7422C111.051 28.7422 111.624 28.8984 112.066 29.2109C112.535 29.4974 112.9 29.888 113.16 30.3828C113.447 30.8516 113.642 31.3854 113.746 31.9844C113.85 32.5573 113.902 33.1172 113.902 33.6641C113.902 34.6797 113.668 35.7474 113.199 36.8672C112.73 37.9609 112.092 38.9766 111.285 39.9141C110.504 40.8255 109.605 41.5807 108.59 42.1797C107.574 42.7526 106.52 43.0391 105.426 43.0391C104.332 43.0391 103.512 42.7526 102.965 42.1797C102.444 41.5807 102.184 40.7604 102.184 39.7188ZM105.23 39.25C105.23 39.5365 105.348 39.7318 105.582 39.8359C105.816 39.9401 106.051 39.9922 106.285 39.9922C106.936 39.9922 107.561 39.8229 108.16 39.4844C108.785 39.1198 109.332 38.6771 109.801 38.1562C110.296 37.6094 110.686 37.0104 110.973 36.3594C111.259 35.7083 111.402 35.0833 111.402 34.4844C111.402 34.1979 111.376 33.8854 111.324 33.5469C111.298 33.1823 111.22 32.8698 111.09 32.6094C110.96 32.3229 110.751 32.1016 110.465 31.9453C110.204 31.7891 109.827 31.763 109.332 31.8672C108.967 31.9453 108.551 32.2839 108.082 32.8828C107.613 33.4818 107.158 34.1849 106.715 34.9922C106.298 35.7734 105.947 36.5677 105.66 37.375C105.374 38.1562 105.23 38.7812 105.23 39.25ZM133.785 47.1406C132.613 47.1406 131.676 46.8672 130.973 46.3203C130.27 45.7734 129.723 45.0443 129.332 44.1328C128.967 43.2474 128.72 42.2318 128.59 41.0859C128.46 39.9401 128.368 38.7682 128.316 37.5703C128.29 36.3724 128.264 35.2135 128.238 34.0938C128.238 32.9479 128.16 31.9453 128.004 31.0859C127.848 30.2266 127.587 29.5495 127.223 29.0547C126.884 28.5339 126.35 28.3125 125.621 28.3906C125.439 28.7292 125.165 29.237 124.801 29.9141C124.462 30.5911 124.059 31.3594 123.59 32.2188C123.121 33.0781 122.626 33.9896 122.105 34.9531C121.611 35.9167 121.129 36.8281 120.66 37.6875C120.191 38.5469 119.762 39.3281 119.371 40.0312C119.007 40.7083 118.733 41.2161 118.551 41.5547C118.342 41.9193 118.199 42.2057 118.121 42.4141C118.043 42.5964 117.952 42.7526 117.848 42.8828C117.77 42.987 117.652 43.0521 117.496 43.0781C117.366 43.1042 117.158 43.1172 116.871 43.1172C116.35 43.1172 115.986 43.0391 115.777 42.8828C115.569 42.7005 115.465 42.349 115.465 41.8281C115.908 40.1615 116.493 38.5078 117.223 36.8672C117.978 35.2005 118.811 33.5599 119.723 31.9453C120.634 30.3047 121.598 28.6901 122.613 27.1016C123.629 25.487 124.632 23.8984 125.621 22.3359C126.246 21.3984 126.975 20.3177 127.809 19.0938C128.642 17.8438 129.566 16.6719 130.582 15.5781C131.624 14.4583 132.743 13.5208 133.941 12.7656C135.165 12.0104 136.467 11.6328 137.848 11.6328C138.342 11.6068 138.798 11.6849 139.215 11.8672C139.658 12.0234 140.022 12.2708 140.309 12.6094C140.595 12.9479 140.803 13.3385 140.934 13.7812C141.064 14.224 141.077 14.7057 140.973 15.2266C140.973 16.5026 140.699 17.7396 140.152 18.9375C139.632 20.1094 138.967 21.2031 138.16 22.2188C137.353 23.2344 136.48 24.1589 135.543 24.9922C134.632 25.8255 133.772 26.5417 132.965 27.1406C132.158 27.7396 131.48 28.2214 130.934 28.5859C130.413 28.9245 130.152 29.1068 130.152 29.1328C130.152 29.4453 130.152 30.0443 130.152 30.9297C130.178 31.7891 130.217 32.7786 130.27 33.8984C130.348 35.0182 130.452 36.2031 130.582 37.4531C130.712 38.6771 130.882 39.8359 131.09 40.9297C131.324 41.9974 131.611 42.9089 131.949 43.6641C132.314 44.4193 132.743 44.888 133.238 45.0703C133.316 45.0964 133.499 45.1354 133.785 45.1875C134.072 45.2396 134.384 45.2917 134.723 45.3438C135.087 45.4219 135.413 45.474 135.699 45.5C136.012 45.5521 136.207 45.5911 136.285 45.6172C136.337 45.6432 136.428 45.7214 136.559 45.8516C136.689 45.9818 136.767 46.0729 136.793 46.125C136.194 46.5938 135.699 46.8802 135.309 46.9844C134.918 47.0885 134.41 47.1406 133.785 47.1406ZM127.105 24.9531C127.105 25.3438 127.171 25.6432 127.301 25.8516C127.431 26.0339 127.613 26.1641 127.848 26.2422C128.082 26.3203 128.342 26.3724 128.629 26.3984C128.941 26.3984 129.267 26.3984 129.605 26.3984C130.647 26.3984 131.689 26.0339 132.73 25.3047C133.772 24.5495 134.71 23.638 135.543 22.5703C136.402 21.4766 137.092 20.3177 137.613 19.0938C138.134 17.8698 138.395 16.7891 138.395 15.8516C138.395 15.5911 138.395 15.3307 138.395 15.0703C138.395 14.8099 138.368 14.5755 138.316 14.3672C138.264 14.1328 138.16 13.9505 138.004 13.8203C137.848 13.6901 137.6 13.625 137.262 13.625C136.663 13.625 135.999 13.8333 135.27 14.25C134.54 14.6406 133.798 15.1615 133.043 15.8125C132.288 16.4635 131.546 17.2057 130.816 18.0391C130.113 18.8464 129.488 19.6797 128.941 20.5391C128.395 21.3724 127.952 22.1797 127.613 22.9609C127.275 23.7422 127.105 24.4062 127.105 24.9531ZM151.715 43.0391C151.064 43.1432 150.465 43.0391 149.918 42.7266C149.397 42.388 148.98 41.9583 148.668 41.4375C148.355 40.8906 148.173 40.3047 148.121 39.6797C148.069 39.0286 148.199 38.4427 148.512 37.9219C149.658 36.4375 150.439 35.2656 150.855 34.4062C151.272 33.5208 151.415 32.9089 151.285 32.5703C151.181 32.2057 150.855 32.0625 150.309 32.1406C149.788 32.1927 149.15 32.4271 148.395 32.8438C147.639 33.2344 146.819 33.7552 145.934 34.4062C145.074 35.0573 144.267 35.7734 143.512 36.5547C142.757 37.3359 142.092 38.1562 141.52 39.0156C140.973 39.849 140.621 40.6693 140.465 41.4766C140.204 41.6328 139.983 41.763 139.801 41.8672C139.618 41.9453 139.41 41.9844 139.176 41.9844C138.785 41.9844 138.551 41.8542 138.473 41.5938C138.395 41.3333 138.355 41.0599 138.355 40.7734C138.355 40.1224 138.551 39.4583 138.941 38.7812C139.358 38.0781 139.827 37.4271 140.348 36.8281C140.895 36.2031 141.415 35.6432 141.91 35.1484C142.405 34.6276 142.757 34.2109 142.965 33.8984C143.616 32.8307 144.267 31.6849 144.918 30.4609C145.569 29.2109 146.22 27.9479 146.871 26.6719C147.522 25.3698 148.186 24.0938 148.863 22.8438C149.566 21.5677 150.296 20.3568 151.051 19.2109C151.181 19.0026 151.285 18.8594 151.363 18.7812C151.467 18.7031 151.611 18.6641 151.793 18.6641C152.001 18.6641 152.158 18.7031 152.262 18.7812C152.366 18.8594 152.47 19.0026 152.574 19.2109C152.574 19.3151 152.548 19.4844 152.496 19.7188C152.47 19.9531 152.431 20.2135 152.379 20.5C152.353 20.7604 152.301 21.0078 152.223 21.2422C152.171 21.4766 152.132 21.6328 152.105 21.7109C151.949 22.0234 151.689 22.5703 151.324 23.3516C150.96 24.1328 150.556 24.9661 150.113 25.8516C149.697 26.737 149.293 27.6094 148.902 28.4688C148.512 29.3021 148.225 29.9271 148.043 30.3438C148.434 30.0833 148.785 29.888 149.098 29.7578C149.41 29.6016 149.71 29.4974 149.996 29.4453C150.309 29.3672 150.621 29.3281 150.934 29.3281C151.272 29.3021 151.637 29.2891 152.027 29.2891C152.965 29.5234 153.577 29.875 153.863 30.3438C154.176 30.8125 154.267 31.3594 154.137 31.9844C154.033 32.5833 153.785 33.2474 153.395 33.9766C153.004 34.7057 152.587 35.4479 152.145 36.2031C151.728 36.9323 151.35 37.6484 151.012 38.3516C150.673 39.0286 150.517 39.6536 150.543 40.2266C150.543 40.4609 150.595 40.6302 150.699 40.7344C150.803 40.8385 150.934 40.9167 151.09 40.9688C151.246 41.0208 151.415 41.0469 151.598 41.0469C151.78 41.0469 151.949 41.0469 152.105 41.0469C152.652 41.0469 153.173 40.9688 153.668 40.8125C154.189 40.6302 154.697 40.4349 155.191 40.2266C155.686 40.0182 156.181 39.8359 156.676 39.6797C157.197 39.4974 157.73 39.4062 158.277 39.4062C158.277 39.901 158.03 40.3698 157.535 40.8125C157.04 41.2552 156.441 41.6458 155.738 41.9844C155.061 42.2969 154.345 42.5573 153.59 42.7656C152.835 42.9479 152.21 43.0391 151.715 43.0391ZM154.254 54.7969C155.087 53.4427 156.051 52.2318 157.145 51.1641C158.238 50.1224 159.358 49.1328 160.504 48.1953C161.676 47.2578 162.835 46.3464 163.98 45.4609C165.126 44.5755 166.181 43.625 167.145 42.6094C168.134 41.5938 168.98 40.474 169.684 39.25C170.387 38 170.868 36.5547 171.129 34.9141C171.129 34.862 171.116 34.7839 171.09 34.6797C171.09 34.5495 171.09 34.4583 171.09 34.4062C170.491 35.1094 169.762 35.9036 168.902 36.7891C168.069 37.6745 167.158 38.5078 166.168 39.2891C165.204 40.0703 164.189 40.7214 163.121 41.2422C162.053 41.763 161.012 42.0234 159.996 42.0234C159.736 42.0234 159.397 42.0104 158.98 41.9844C158.59 41.9323 158.199 41.8411 157.809 41.7109C157.418 41.5807 157.079 41.3984 156.793 41.1641C156.507 40.9297 156.363 40.6172 156.363 40.2266C156.363 39.888 156.454 39.3672 156.637 38.6641C156.819 37.9609 157.066 37.1797 157.379 36.3203C157.691 35.4609 158.043 34.5885 158.434 33.7031C158.824 32.8177 159.241 32.0104 159.684 31.2812C160.126 30.5521 160.556 29.9531 160.973 29.4844C161.415 29.0156 161.819 28.7812 162.184 28.7812C162.548 28.7812 162.861 28.8594 163.121 29.0156C163.382 29.1719 163.512 29.4323 163.512 29.7969C163.512 30.4479 163.277 31.099 162.809 31.75C162.34 32.401 161.832 33.1042 161.285 33.8594C160.738 34.5885 160.23 35.3828 159.762 36.2422C159.293 37.1016 159.059 38.0781 159.059 39.1719C160.777 39.1719 162.327 38.8203 163.707 38.1172C165.087 37.388 166.337 36.4896 167.457 35.4219C168.577 34.3542 169.566 33.1953 170.426 31.9453C171.285 30.6953 172.04 29.5365 172.691 28.4688C173.368 27.401 173.941 26.5156 174.41 25.8125C174.905 25.0833 175.322 24.7188 175.66 24.7188C176.155 24.7188 176.441 24.875 176.52 25.1875C176.624 25.474 176.676 25.8385 176.676 26.2812C176.441 27.0885 176.116 28.0391 175.699 29.1328C175.283 30.2005 174.853 31.3333 174.41 32.5312C173.993 33.7031 173.603 34.875 173.238 36.0469C172.9 37.2188 172.678 38.2865 172.574 39.25C172.574 39.276 172.574 39.3151 172.574 39.3672C172.6 39.4193 172.613 39.4583 172.613 39.4844C173.082 39.3281 173.525 39.0547 173.941 38.6641C174.358 38.2734 174.762 37.8828 175.152 37.4922C175.569 37.0755 175.986 36.7109 176.402 36.3984C176.819 36.0599 177.249 35.8906 177.691 35.8906C177.717 35.8906 177.809 36.0729 177.965 36.4375C178.147 36.8021 178.147 37.2448 177.965 37.7656C177.73 37.9479 177.301 38.2604 176.676 38.7031C176.077 39.1458 175.439 39.6146 174.762 40.1094C174.085 40.5781 173.447 41.0469 172.848 41.5156C172.249 41.9583 171.832 42.2969 171.598 42.5312C171.233 42.8958 170.855 43.4167 170.465 44.0938C170.074 44.7708 169.684 45.526 169.293 46.3594C168.902 47.2188 168.512 48.1172 168.121 49.0547C167.757 49.9922 167.392 50.9036 167.027 51.7891C166.663 52.7005 166.298 53.5339 165.934 54.2891C165.595 55.0703 165.283 55.7083 164.996 56.2031C164.866 56.4115 164.592 56.8151 164.176 57.4141C163.785 58.0391 163.342 58.7031 162.848 59.4062C162.379 60.1094 161.91 60.7734 161.441 61.3984C160.999 62.0495 160.66 62.5052 160.426 62.7656C160.322 62.8958 160.035 63.1953 159.566 63.6641C159.098 64.1589 158.564 64.6927 157.965 65.2656C157.392 65.8646 156.819 66.4505 156.246 67.0234C155.647 67.5964 155.191 68.026 154.879 68.3125C154.566 68.4948 154.15 68.7161 153.629 68.9766C153.108 69.263 152.574 69.4974 152.027 69.6797C151.454 69.862 150.908 69.9792 150.387 70.0312C149.84 70.0833 149.397 69.9661 149.059 69.6797C148.72 69.4193 148.525 68.9635 148.473 68.3125C148.395 67.6875 148.538 66.7891 148.902 65.6172C149.241 64.4714 149.84 63.013 150.699 61.2422C151.559 59.4714 152.743 57.3229 154.254 54.7969ZM166.52 46.3984C166.467 46.3984 166.376 46.4115 166.246 46.4375C166.142 46.4896 166.064 46.5286 166.012 46.5547C165.96 46.6068 165.842 46.6979 165.66 46.8281C165.478 46.9583 165.27 47.1016 165.035 47.2578C164.827 47.4141 164.618 47.5703 164.41 47.7266C164.228 47.8828 164.098 48 164.02 48.0781C163.29 48.599 162.457 49.3281 161.52 50.2656C160.582 51.2292 159.605 52.2839 158.59 53.4297C157.6 54.6016 156.624 55.8255 155.66 57.1016C154.697 58.4036 153.837 59.6406 153.082 60.8125C152.301 62.0104 151.676 63.1042 151.207 64.0938C150.738 65.0833 150.491 65.8776 150.465 66.4766C150.439 67.0755 150.686 67.4271 151.207 67.5312C151.728 67.6354 152.613 67.388 153.863 66.7891C154.124 66.5547 154.501 66.2031 154.996 65.7344C155.465 65.2917 155.934 64.8229 156.402 64.3281C156.897 63.8594 157.34 63.4167 157.73 63C158.121 62.6094 158.355 62.362 158.434 62.2578C158.564 62.0755 158.772 61.7891 159.059 61.3984C159.345 61.0078 159.658 60.5651 159.996 60.0703C160.335 59.5755 160.686 59.0547 161.051 58.5078C161.415 57.9609 161.754 57.4271 162.066 56.9062C162.405 56.4115 162.691 55.9688 162.926 55.5781C163.186 55.1875 163.368 54.888 163.473 54.6797C163.707 54.263 163.993 53.6641 164.332 52.8828C164.697 52.1276 165.035 51.3333 165.348 50.5C165.66 49.6927 165.934 48.9115 166.168 48.1562C166.402 47.401 166.52 46.8151 166.52 46.3984ZM177.457 39.2109C177.457 38.4557 177.6 37.7005 177.887 36.9453C178.173 36.1901 178.512 35.4479 178.902 34.7188C179.293 33.9635 179.684 33.2214 180.074 32.4922C180.491 31.763 180.803 31.0469 181.012 30.3438C180.517 30.6302 180.087 30.7995 179.723 30.8516C179.384 30.8776 178.967 30.8906 178.473 30.8906C178.421 30.8906 178.251 30.8906 177.965 30.8906C177.704 30.8646 177.535 30.8516 177.457 30.8516C177.613 30.2786 177.9 29.7708 178.316 29.3281C178.733 28.8594 179.202 28.4688 179.723 28.1562C180.27 27.8177 180.829 27.5443 181.402 27.3359C182.001 27.1016 182.535 26.9193 183.004 26.7891C183.785 25.5651 184.423 24.3411 184.918 23.1172C185.413 21.8672 185.908 20.6562 186.402 19.4844C186.923 18.2865 187.522 17.1536 188.199 16.0859C188.902 14.9922 189.84 13.9896 191.012 13.0781L191.207 14.5625L186.324 26.0078C186.611 25.9297 186.962 25.8516 187.379 25.7734C187.796 25.6953 188.212 25.6172 188.629 25.5391C189.072 25.4609 189.488 25.3958 189.879 25.3438C190.296 25.2656 190.647 25.1875 190.934 25.1094C190.96 25.1094 191.038 25.1094 191.168 25.1094C191.298 25.0833 191.402 25.0703 191.48 25.0703C191.845 25.0703 192.145 25.1354 192.379 25.2656C192.613 25.3958 192.809 25.6823 192.965 26.125C191.194 26.6458 189.592 27.1927 188.16 27.7656C186.728 28.3385 185.478 29.0938 184.41 30.0312C183.368 30.9427 182.509 32.1146 181.832 33.5469C181.181 34.9531 180.725 36.763 180.465 38.9766C180.465 39.4453 180.491 39.875 180.543 40.2656C180.595 40.6562 180.921 40.8906 181.52 40.9688C182.118 40.9688 182.678 40.8516 183.199 40.6172C183.72 40.3828 184.228 40.1354 184.723 39.875C185.217 39.5885 185.712 39.3281 186.207 39.0938C186.728 38.8594 187.288 38.7422 187.887 38.7422C187.887 39.3672 187.613 39.9401 187.066 40.4609C186.52 40.9818 185.855 41.4375 185.074 41.8281C184.319 42.2188 183.538 42.5182 182.73 42.7266C181.923 42.9349 181.259 43.0391 180.738 43.0391C180.217 43.0391 179.749 42.9349 179.332 42.7266C178.915 42.5182 178.564 42.2448 178.277 41.9062C178.017 41.5417 177.809 41.125 177.652 40.6562C177.522 40.1875 177.457 39.7057 177.457 39.2109ZM201.363 43.0391C200.712 43.1432 200.113 43.0391 199.566 42.7266C199.046 42.388 198.629 41.9583 198.316 41.4375C198.004 40.8906 197.822 40.3047 197.77 39.6797C197.717 39.0286 197.848 38.4427 198.16 37.9219C199.306 36.4375 200.087 35.2656 200.504 34.4062C200.921 33.5208 201.064 32.9089 200.934 32.5703C200.829 32.2057 200.504 32.0625 199.957 32.1406C199.436 32.1927 198.798 32.4271 198.043 32.8438C197.288 33.2344 196.467 33.7552 195.582 34.4062C194.723 35.0573 193.915 35.7734 193.16 36.5547C192.405 37.3359 191.741 38.1562 191.168 39.0156C190.621 39.849 190.27 40.6693 190.113 41.4766C189.853 41.6328 189.632 41.763 189.449 41.8672C189.267 41.9453 189.059 41.9844 188.824 41.9844C188.434 41.9844 188.199 41.8542 188.121 41.5938C188.043 41.3333 188.004 41.0599 188.004 40.7734C188.004 40.1224 188.199 39.4583 188.59 38.7812C189.007 38.0781 189.475 37.4271 189.996 36.8281C190.543 36.2031 191.064 35.6432 191.559 35.1484C192.053 34.6276 192.405 34.2109 192.613 33.8984C193.264 32.8307 193.915 31.6849 194.566 30.4609C195.217 29.2109 195.868 27.9479 196.52 26.6719C197.171 25.3698 197.835 24.0938 198.512 22.8438C199.215 21.5677 199.944 20.3568 200.699 19.2109C200.829 19.0026 200.934 18.8594 201.012 18.7812C201.116 18.7031 201.259 18.6641 201.441 18.6641C201.65 18.6641 201.806 18.7031 201.91 18.7812C202.014 18.8594 202.118 19.0026 202.223 19.2109C202.223 19.3151 202.197 19.4844 202.145 19.7188C202.118 19.9531 202.079 20.2135 202.027 20.5C202.001 20.7604 201.949 21.0078 201.871 21.2422C201.819 21.4766 201.78 21.6328 201.754 21.7109C201.598 22.0234 201.337 22.5703 200.973 23.3516C200.608 24.1328 200.204 24.9661 199.762 25.8516C199.345 26.737 198.941 27.6094 198.551 28.4688C198.16 29.3021 197.874 29.9271 197.691 30.3438C198.082 30.0833 198.434 29.888 198.746 29.7578C199.059 29.6016 199.358 29.4974 199.645 29.4453C199.957 29.3672 200.27 29.3281 200.582 29.3281C200.921 29.3021 201.285 29.2891 201.676 29.2891C202.613 29.5234 203.225 29.875 203.512 30.3438C203.824 30.8125 203.915 31.3594 203.785 31.9844C203.681 32.5833 203.434 33.2474 203.043 33.9766C202.652 34.7057 202.236 35.4479 201.793 36.2031C201.376 36.9323 200.999 37.6484 200.66 38.3516C200.322 39.0286 200.165 39.6536 200.191 40.2266C200.191 40.4609 200.243 40.6302 200.348 40.7344C200.452 40.8385 200.582 40.9167 200.738 40.9688C200.895 41.0208 201.064 41.0469 201.246 41.0469C201.428 41.0469 201.598 41.0469 201.754 41.0469C202.301 41.0469 202.822 40.9688 203.316 40.8125C203.837 40.6302 204.345 40.4349 204.84 40.2266C205.335 40.0182 205.829 39.8359 206.324 39.6797C206.845 39.4974 207.379 39.4062 207.926 39.4062C207.926 39.901 207.678 40.3698 207.184 40.8125C206.689 41.2552 206.09 41.6458 205.387 41.9844C204.71 42.2969 203.993 42.5573 203.238 42.7656C202.483 42.9479 201.858 43.0391 201.363 43.0391ZM225.27 43.0391C224.775 43.0391 224.319 42.9479 223.902 42.7656C223.512 42.5833 223.186 42.3229 222.926 41.9844C222.665 41.6458 222.483 41.2682 222.379 40.8516C222.275 40.4089 222.288 39.9401 222.418 39.4453C222.418 38.612 222.561 37.8438 222.848 37.1406C223.16 36.4115 223.499 35.7214 223.863 35.0703C224.254 34.3932 224.592 33.7292 224.879 33.0781C225.191 32.401 225.348 31.6849 225.348 30.9297C224.775 30.9297 224.163 31.112 223.512 31.4766C222.861 31.8411 222.197 32.3229 221.52 32.9219C220.868 33.5208 220.217 34.1979 219.566 34.9531C218.941 35.6823 218.342 36.4245 217.77 37.1797C217.223 37.9089 216.741 38.612 216.324 39.2891C215.934 39.9661 215.634 40.526 215.426 40.9688C215.374 40.9948 215.243 41.0208 215.035 41.0469C214.827 41.0469 214.697 41.0469 214.645 41.0469C214.228 41.2552 213.967 41.2552 213.863 41.0469C213.785 40.8125 213.785 40.4609 213.863 39.9922C213.967 39.5234 214.124 39.0026 214.332 38.4297C214.54 37.8307 214.736 37.2708 214.918 36.75C215.126 36.2031 215.283 35.7604 215.387 35.4219C215.491 35.0573 215.504 34.875 215.426 34.875C215.504 34.7708 215.595 34.6016 215.699 34.3672C215.803 34.1328 215.908 33.8854 216.012 33.625C216.116 33.3646 216.207 33.1302 216.285 32.9219C216.363 32.6875 216.402 32.5052 216.402 32.375C216.402 32.1406 216.311 31.9974 216.129 31.9453C215.973 31.8672 215.816 31.8281 215.66 31.8281C215.191 31.5677 214.684 31.724 214.137 32.2969C213.616 32.8438 213.043 33.638 212.418 34.6797C211.819 35.6953 211.155 36.8672 210.426 38.1953C209.723 39.4974 208.941 40.7604 208.082 41.9844C207.483 41.9844 207.027 41.9062 206.715 41.75C206.402 41.5938 206.246 41.2031 206.246 40.5781C206.454 40.2917 206.767 39.7578 207.184 38.9766C207.6 38.1693 208.069 37.2839 208.59 36.3203C209.111 35.3568 209.658 34.3802 210.23 33.3906C210.829 32.401 211.389 31.5677 211.91 30.8906C212.457 30.1875 212.939 29.7188 213.355 29.4844C213.798 29.224 214.15 29.3411 214.41 29.8359C214.853 29.5495 215.335 29.3021 215.855 29.0938C216.402 28.8854 216.949 28.7812 217.496 28.7812C217.861 28.7812 218.16 28.8984 218.395 29.1328C218.655 29.3411 218.85 29.6146 218.98 29.9531C219.137 30.2656 219.254 30.6042 219.332 30.9688C219.41 31.3073 219.449 31.6068 219.449 31.8672C219.736 31.6849 220.204 31.3724 220.855 30.9297C221.533 30.4609 222.249 29.9922 223.004 29.5234C223.785 29.0547 224.54 28.651 225.27 28.3125C226.025 27.9479 226.637 27.7656 227.105 27.7656C227.522 27.7656 227.874 27.9219 228.16 28.2344C228.473 28.5208 228.629 28.8854 228.629 29.3281C227.691 31.6198 226.949 33.4557 226.402 34.8359C225.882 36.2161 225.53 37.2969 225.348 38.0781C225.191 38.8333 225.191 39.3802 225.348 39.7188C225.53 40.0312 225.842 40.2786 226.285 40.4609C226.988 40.4609 227.665 40.3438 228.316 40.1094C228.967 39.875 229.605 39.6146 230.23 39.3281C230.882 39.0417 231.533 38.7812 232.184 38.5469C232.835 38.3125 233.525 38.1953 234.254 38.1953C234.254 38.4818 234.176 38.7552 234.02 39.0156C233.889 39.25 233.681 39.4323 233.395 39.5625C233.186 39.6927 232.809 39.901 232.262 40.1875C231.741 40.4479 231.168 40.7344 230.543 41.0469C229.918 41.3333 229.319 41.6198 228.746 41.9062C228.199 42.1927 227.809 42.388 227.574 42.4922C227.053 42.7266 226.65 42.8828 226.363 42.9609C226.103 43.013 225.738 43.0391 225.27 43.0391Z" fill="#454545"/>
</svg>
