<svg width="25" height="26" viewBox="0 0 25 26" fill="none" xmlns="http://www.w3.org/2000/svg">
<path d="M20.2969 21.4937L13.774 14.9708C13.2531 15.4146 12.6542 15.758 11.9771 16.001C11.3 16.2441 10.6195 16.3656 9.93542 16.3656C8.26737 16.3656 6.85556 15.7882 5.70001 14.6333C4.54445 13.4785 3.96667 12.067 3.96667 10.3989C3.96667 8.73089 4.54376 7.31874 5.69792 6.16249C6.85209 5.00624 8.2632 4.42742 9.93126 4.42603C11.5993 4.42464 13.0118 5.00242 14.1688 6.15936C15.3257 7.31631 15.9042 8.72846 15.9042 10.3958C15.9042 11.1194 15.776 11.8198 15.5198 12.4969C15.2635 13.1739 14.9267 13.7531 14.5094 14.2344L21.0323 20.7562L20.2969 21.4937ZM9.93647 15.3229C11.3184 15.3229 12.4851 14.8472 13.4365 13.8958C14.3879 12.9444 14.8636 11.7774 14.8636 10.3948C14.8636 9.01214 14.3879 7.84547 13.4365 6.89478C12.4851 5.94408 11.3184 5.46839 9.93647 5.46769C8.55452 5.467 7.38751 5.94269 6.43542 6.89478C5.48334 7.84686 5.00765 9.01353 5.00834 10.3948C5.00904 11.776 5.48473 12.9427 6.43542 13.8948C7.38612 14.8469 8.55279 15.3226 9.93542 15.3219" fill="black"/>
</svg>
